<svg xmlns="http://www.w3.org/2000/svg" class="graphdiagram" viewBox="-817.4208984375 -121.14294965051249 2718.4365342006695 1491.9038598410818"><g class="layer relationships"><g class="related-pair"><g class="relationship" transform="translate(313,1104.3894653320312) rotate(0)"><path class="relationship" d="M 171.91144875145068 4 L 1223.192738260268 4 L 1223.192738260268 16 L 1255.192738260268 0 L 1223.192738260268 -16 L 1223.192738260268 -4 L 171.91144875145068 -4 Z" fill="rgb(0, 0, 0)" stroke="rgb(51, 51, 51)" stroke-width="0px"/></g></g><g class="related-pair"><g class="relationship" transform="translate(313,1104.3894653320312) rotate(-90)"><path class="relationship" d="M 171.91144875145068 4 L 664.8188012173171 4 L 664.8188012173171 16 L 696.8188012173171 0 L 664.8188012173171 -16 L 664.8188012173171 -4 L 171.91144875145068 -4 Z" fill="rgb(0, 0, 0)" stroke="rgb(51, 51, 51)" stroke-width="0px"/></g></g></g><g class="layer nodes"><circle class="node node-id-0" r="158.37680882906966" fill="rgb(255, 255, 255)" stroke="rgb(0, 0, 0)" stroke-width="8px" cx="313" cy="234.19385528564453"/><circle class="node node-id-1" r="156.91144875145068" fill="rgb(255, 255, 255)" stroke="rgb(0, 0, 0)" stroke-width="8px" cx="313" cy="1104.3894653320312"/><circle class="node node-id-4" r="156.91144875145068" fill="rgb(255, 255, 255)" stroke="rgb(0, 0, 0)" stroke-width="8px" cx="1740.1041870117188" cy="1104.3894653320312"/><g class="caption"><text class="caption node" text-anchor="middle" alignment-baseline="central" x="313" y="184.19385528564453" fill="rgb(51, 51, 51)" font-size="50px" font-family="&quot;Gill Sans&quot;, &quot;Gill Sans MT&quot;, Calibri, sans-serif">Event</text><text class="caption node" text-anchor="middle" alignment-baseline="central" x="313" y="234.19385528564453" fill="rgb(51, 51, 51)" font-size="50px" font-family="&quot;Gill Sans&quot;, &quot;Gill Sans MT&quot;, Calibri, sans-serif">Registration</text><text class="caption node" text-anchor="middle" alignment-baseline="central" x="313" y="284.19385528564453" fill="rgb(51, 51, 51)" font-size="50px" font-family="&quot;Gill Sans&quot;, &quot;Gill Sans MT&quot;, Calibri, sans-serif">Mechanism</text></g><g class="caption"><text class="caption node" text-anchor="middle" alignment-baseline="central" x="313" y="1054.3894653320312" fill="rgb(51, 51, 51)" font-size="50px" font-family="&quot;Gill Sans&quot;, &quot;Gill Sans MT&quot;, Calibri, sans-serif">Sysmon</text><text class="caption node" text-anchor="middle" alignment-baseline="central" x="313" y="1104.3894653320312" fill="rgb(51, 51, 51)" font-size="50px" font-family="&quot;Gill Sans&quot;, &quot;Gill Sans MT&quot;, Calibri, sans-serif">Service</text><text class="caption node" text-anchor="middle" alignment-baseline="central" x="313" y="1154.3894653320312" fill="rgb(51, 51, 51)" font-size="50px" font-family="&quot;Gill Sans&quot;, &quot;Gill Sans MT&quot;, Calibri, sans-serif">Binary</text></g><g class="caption"><text class="caption node" text-anchor="middle" alignment-baseline="central" x="1740.1041870117188" y="1054.3894653320312" fill="rgb(51, 51, 51)" font-size="50px" font-family="&quot;Gill Sans&quot;, &quot;Gill Sans MT&quot;, Calibri, sans-serif">Sysmon</text><text class="caption node" text-anchor="middle" alignment-baseline="central" x="1740.1041870117188" y="1104.3894653320312" fill="rgb(51, 51, 51)" font-size="50px" font-family="&quot;Gill Sans&quot;, &quot;Gill Sans MT&quot;, Calibri, sans-serif">Event ID</text><text class="caption node" text-anchor="middle" alignment-baseline="central" x="1740.1041870117188" y="1154.3894653320312" fill="rgb(51, 51, 51)" font-size="50px" font-family="&quot;Gill Sans&quot;, &quot;Gill Sans MT&quot;, Calibri, sans-serif">3</text></g></g><g class="layer properties"><g class="speech-bubble node-speech-bubble" transform="translate(313,75.81704645657487) "><path class="speech-bubble-outline" transform="scale(1,-1) " d="M 0 0 L -10 20 L -1194.54345703125 20 A 10 10 0 0 0 -1204.54345703125 30 L -1204.54345703125 80 A 10 10 0 0 0 -1194.54345703125 90 L 1194.54345703125 90 A 10 10 0 0 0 1204.54345703125 80 L 1204.54345703125 30 A 10 10 0 0 0 1194.54345703125 20 L 10 20 Z" fill="rgb(255, 255, 255)" stroke="rgb(0, 0, 0)" stroke-width="3px"/><text class="speech-bubble-content property-key" x="-944.71435546875" y="-55" alignment-baseline="central" text-anchor="end" font-size="50px" font-family="&quot;Gill Sans&quot;, &quot;Gill Sans MT&quot;, Calibri, sans-serif" xml:space="preserve">Mechanism: </text><text class="speech-bubble-content property-value" x="-944.71435546875" y="-55" alignment-baseline="central" font-size="50px" font-family="&quot;Gill Sans&quot;, &quot;Gill Sans MT&quot;, Calibri, sans-serif">ETW - Logging Session: NT KernelFunction: StartTraceFlag: EVENT_TRACE_FLAG_NETWORK_TCPIP</text></g></g><g class="layer overlay"><circle class="node overlay" r="162.37680882906966" stroke="none" fill="rgba(255, 255, 255, 0)" cx="313" cy="234.19385528564453"/><circle class="node overlay" r="160.91144875145068" stroke="none" fill="rgba(255, 255, 255, 0)" cx="313" cy="1104.3894653320312"/><circle class="node overlay" r="160.91144875145068" stroke="none" fill="rgba(255, 255, 255, 0)" cx="1740.1041870117188" cy="1104.3894653320312"/><circle class="node ring" r="167.37680882906966" fill="none" stroke="rgba(255, 255, 255, 0)" stroke-width="10px" cx="313" cy="234.19385528564453"/><circle class="node ring" r="165.91144875145068" fill="none" stroke="rgba(255, 255, 255, 0)" stroke-width="10px" cx="313" cy="1104.3894653320312"/><circle class="node ring" r="165.91144875145068" fill="none" stroke="rgba(255, 255, 255, 0)" stroke-width="10px" cx="1740.1041870117188" cy="1104.3894653320312"/><path class="relationship overlay" fill="rgba(255, 255, 255, 0)" stroke="rgba(255, 255, 255, 0)" stroke-width="10px" transform="translate(313,1104.3894653320312) rotate(0)" d="M 171.91144875145068 4 L 1223.192738260268 4 L 1223.192738260268 16 L 1255.192738260268 0 L 1223.192738260268 -16 L 1223.192738260268 -4 L 171.91144875145068 -4 Z"/><path class="relationship overlay" fill="rgba(255, 255, 255, 0)" stroke="rgba(255, 255, 255, 0)" stroke-width="10px" transform="translate(313,1104.3894653320312) rotate(-90)" d="M 171.91144875145068 4 L 664.8188012173171 4 L 664.8188012173171 16 L 696.8188012173171 0 L 664.8188012173171 -16 L 664.8188012173171 -4 L 171.91144875145068 -4 Z"/></g></svg>