<svg xmlns="http://www.w3.org/2000/svg" class="graphdiagram" viewBox="-1346.5209726865428 -416.0489010770097 3649.5347654310617 2002.899436742523"><g class="layer relationships"><g class="related-pair"><g class="relationship" transform="translate(-483.9273223876953,-212.55958557128906) rotate(0)"><path class="relationship" d="M 89.89078140343551 4 L 591.5505135586257 4 L 591.5505135586257 16 L 623.5505135586257 0 L 591.5505135586257 -16 L 591.5505135586257 -4 L 89.89078140343551 -4 Z" fill="rgb(0, 0, 0)" stroke="rgb(51, 51, 51)" stroke-width="0px"/></g></g><g class="related-pair"><g class="relationship" transform="translate(313,1425.9390869140625) rotate(0)"><path class="relationship" d="M 171.91144875145068 4 L 1325.7409560337055 4 L 1325.7409560337055 16 L 1357.7409560337055 0 L 1325.7409560337055 -16 L 1325.7409560337055 -4 L 171.91144875145068 -4 Z" fill="rgb(0, 0, 0)" stroke="rgb(51, 51, 51)" stroke-width="0px"/></g></g><g class="related-pair"><g class="relationship" transform="translate(313,1425.9390869140625) rotate(-90)"><path class="relationship" d="M 171.91144875145068 4 L 1433.121863656282 4 L 1433.121863656282 16 L 1465.121863656282 0 L 1433.121863656282 -16 L 1433.121863656282 -4 L 171.91144875145068 -4 Z" fill="rgb(0, 0, 0)" stroke="rgb(51, 51, 51)" stroke-width="0px"/></g></g></g><g class="layer nodes"><circle class="node node-id-0" r="74.89078140343551" fill="rgb(255, 255, 255)" stroke="rgb(0, 0, 0)" stroke-width="8px" cx="-483.9273223876953" cy="-212.55958557128906"/><circle class="node node-id-1" r="158.37680882906966" fill="rgb(255, 255, 255)" stroke="rgb(0, 0, 0)" stroke-width="8px" cx="313" cy="-212.55958557128906"/><circle class="node node-id-4" r="156.91144875145068" fill="rgb(255, 255, 255)" stroke="rgb(0, 0, 0)" stroke-width="8px" cx="313" cy="1425.9390869140625"/><circle class="node node-id-5" r="156.91144875145068" fill="rgb(255, 255, 255)" stroke="rgb(0, 0, 0)" stroke-width="8px" cx="1842.6524047851562" cy="1425.9390869140625"/><g class="caption"><text class="caption node" text-anchor="middle" alignment-baseline="central" x="-483.9273223876953" y="-212.55958557128906" fill="rgb(51, 51, 51)" font-size="50px" font-family="&quot;Gill Sans&quot;, &quot;Gill Sans MT&quot;, Calibri, sans-serif">API's</text></g><g class="caption"><text class="caption node" text-anchor="middle" alignment-baseline="central" x="313" y="-262.55958557128906" fill="rgb(51, 51, 51)" font-size="50px" font-family="&quot;Gill Sans&quot;, &quot;Gill Sans MT&quot;, Calibri, sans-serif">Event</text><text class="caption node" text-anchor="middle" alignment-baseline="central" x="313" y="-212.55958557128906" fill="rgb(51, 51, 51)" font-size="50px" font-family="&quot;Gill Sans&quot;, &quot;Gill Sans MT&quot;, Calibri, sans-serif">Registration</text><text class="caption node" text-anchor="middle" alignment-baseline="central" x="313" y="-162.55958557128906" fill="rgb(51, 51, 51)" font-size="50px" font-family="&quot;Gill Sans&quot;, &quot;Gill Sans MT&quot;, Calibri, sans-serif">Mechanism</text></g><g class="caption"><text class="caption node" text-anchor="middle" alignment-baseline="central" x="313" y="1375.9390869140625" fill="rgb(51, 51, 51)" font-size="50px" font-family="&quot;Gill Sans&quot;, &quot;Gill Sans MT&quot;, Calibri, sans-serif">Sysmon</text><text class="caption node" text-anchor="middle" alignment-baseline="central" x="313" y="1425.9390869140625" fill="rgb(51, 51, 51)" font-size="50px" font-family="&quot;Gill Sans&quot;, &quot;Gill Sans MT&quot;, Calibri, sans-serif">Service</text><text class="caption node" text-anchor="middle" alignment-baseline="central" x="313" y="1475.9390869140625" fill="rgb(51, 51, 51)" font-size="50px" font-family="&quot;Gill Sans&quot;, &quot;Gill Sans MT&quot;, Calibri, sans-serif">Binary</text></g><g class="caption"><text class="caption node" text-anchor="middle" alignment-baseline="central" x="1842.6524047851562" y="1375.9390869140625" fill="rgb(51, 51, 51)" font-size="50px" font-family="&quot;Gill Sans&quot;, &quot;Gill Sans MT&quot;, Calibri, sans-serif">Sysmon</text><text class="caption node" text-anchor="middle" alignment-baseline="central" x="1842.6524047851562" y="1425.9390869140625" fill="rgb(51, 51, 51)" font-size="50px" font-family="&quot;Gill Sans&quot;, &quot;Gill Sans MT&quot;, Calibri, sans-serif">Event ID</text><text class="caption node" text-anchor="middle" alignment-baseline="central" x="1842.6524047851562" y="1475.9390869140625" fill="rgb(51, 51, 51)" font-size="50px" font-family="&quot;Gill Sans&quot;, &quot;Gill Sans MT&quot;, Calibri, sans-serif">22</text></g></g><g class="layer properties"><g class="speech-bubble node-speech-bubble" transform="translate(-558.8181037911309,-212.55958557128906) "><path class="speech-bubble-outline" transform="scale(-1,1) " d="M 0 0 L 20 -10 L 20 -75 A 10 10 0 0 1 30 -85 L 476.7529296875 -85 A 10 10 0 0 1 486.7529296875 -75 L 486.7529296875 75 A 10 10 0 0 1 476.7529296875 85 L 30 85 A 10 10 0 0 1 20 75 L 20 10 Z" fill="rgb(255, 255, 255)" stroke="rgb(0, 0, 0)" stroke-width="3px"/><text class="speech-bubble-content property-key" x="-323.2373046875" y="-50" alignment-baseline="central" text-anchor="end" font-size="50px" font-family="&quot;Gill Sans&quot;, &quot;Gill Sans MT&quot;, Calibri, sans-serif" xml:space="preserve">API(1): </text><text class="speech-bubble-content property-value" x="-323.2373046875" y="-50" alignment-baseline="central" font-size="50px" font-family="&quot;Gill Sans&quot;, &quot;Gill Sans MT&quot;, Calibri, sans-serif">DnsQuery_A</text><text class="speech-bubble-content property-key" x="-323.2373046875" y="0" alignment-baseline="central" text-anchor="end" font-size="50px" font-family="&quot;Gill Sans&quot;, &quot;Gill Sans MT&quot;, Calibri, sans-serif" xml:space="preserve">API(2): </text><text class="speech-bubble-content property-key" x="-323.2373046875" y="50" alignment-baseline="central" text-anchor="end" font-size="50px" font-family="&quot;Gill Sans&quot;, &quot;Gill Sans MT&quot;, Calibri, sans-serif" xml:space="preserve">API(3): </text><text class="speech-bubble-content property-value" x="-323.2373046875" y="0" alignment-baseline="central" font-size="50px" font-family="&quot;Gill Sans&quot;, &quot;Gill Sans MT&quot;, Calibri, sans-serif">DnsQuery_W</text><text class="speech-bubble-content property-value" x="-323.2373046875" y="50" alignment-baseline="central" font-size="50px" font-family="&quot;Gill Sans&quot;, &quot;Gill Sans MT&quot;, Calibri, sans-serif">DnsQueryEx</text></g><g class="speech-bubble node-speech-bubble" transform="translate(424.98931550572064,-324.5489010770097) "><path class="speech-bubble-outline" transform="scale(1,-1) " d="M 0 0 L 30 20 L 1252.3388671875 20 A 10 10 0 0 1 1262.3388671875 30 L 1262.3388671875 80 A 10 10 0 0 1 1252.3388671875 90 L 30 90 A 10 10 0 0 1 20 80 L 20 30 Z" fill="rgb(255, 255, 255)" stroke="rgb(0, 0, 0)" stroke-width="3px"/><text class="speech-bubble-content property-key" x="279.8291015625" y="-55" alignment-baseline="central" text-anchor="end" font-size="50px" font-family="&quot;Gill Sans&quot;, &quot;Gill Sans MT&quot;, Calibri, sans-serif" xml:space="preserve">Mechanism: </text><text class="speech-bubble-content property-value" x="279.8291015625" y="-55" alignment-baseline="central" font-size="50px" font-family="&quot;Gill Sans&quot;, &quot;Gill Sans MT&quot;, Calibri, sans-serif">Microsoft-Windows-DNS-Client ETW Provider</text></g></g><g class="layer overlay"><circle class="node overlay" r="78.89078140343551" stroke="none" fill="rgba(255, 255, 255, 0)" cx="-483.9273223876953" cy="-212.55958557128906"/><circle class="node overlay" r="162.37680882906966" stroke="none" fill="rgba(255, 255, 255, 0)" cx="313" cy="-212.55958557128906"/><circle class="node overlay" r="160.91144875145068" stroke="none" fill="rgba(255, 255, 255, 0)" cx="313" cy="1425.9390869140625"/><circle class="node overlay" r="160.91144875145068" stroke="none" fill="rgba(255, 255, 255, 0)" cx="1842.6524047851562" cy="1425.9390869140625"/><circle class="node ring" r="83.89078140343551" fill="none" stroke="rgba(255, 255, 255, 0)" stroke-width="10px" cx="-483.9273223876953" cy="-212.55958557128906"/><circle class="node ring" r="167.37680882906966" fill="none" stroke="rgba(255, 255, 255, 0)" stroke-width="10px" cx="313" cy="-212.55958557128906"/><circle class="node ring" r="165.91144875145068" fill="none" stroke="rgba(255, 255, 255, 0)" stroke-width="10px" cx="313" cy="1425.9390869140625"/><circle class="node ring" r="165.91144875145068" fill="none" stroke="rgba(255, 255, 255, 0)" stroke-width="10px" cx="1842.6524047851562" cy="1425.9390869140625"/><path class="relationship overlay" fill="rgba(255, 255, 255, 0)" stroke="rgba(255, 255, 255, 0)" stroke-width="10px" transform="translate(-483.9273223876953,-212.55958557128906) rotate(0)" d="M 89.89078140343551 4 L 591.5505135586257 4 L 591.5505135586257 16 L 623.5505135586257 0 L 591.5505135586257 -16 L 591.5505135586257 -4 L 89.89078140343551 -4 Z"/><path class="relationship overlay" fill="rgba(255, 255, 255, 0)" stroke="rgba(255, 255, 255, 0)" stroke-width="10px" transform="translate(313,1425.9390869140625) rotate(0)" d="M 171.91144875145068 4 L 1325.7409560337055 4 L 1325.7409560337055 16 L 1357.7409560337055 0 L 1325.7409560337055 -16 L 1325.7409560337055 -4 L 171.91144875145068 -4 Z"/><path class="relationship overlay" fill="rgba(255, 255, 255, 0)" stroke="rgba(255, 255, 255, 0)" stroke-width="10px" transform="translate(313,1425.9390869140625) rotate(-90)" d="M 171.91144875145068 4 L 1433.121863656282 4 L 1433.121863656282 16 L 1465.121863656282 0 L 1433.121863656282 -16 L 1433.121863656282 -4 L 171.91144875145068 -4 Z"/></g></svg>