<svg xmlns="http://www.w3.org/2000/svg" class="graphdiagram" viewBox="-1093.4557887714582 644.3318224528837 4738.881261503741 2600.743168515744"><g class="layer relationships"><g class="related-pair"><g class="relationship" transform="translate(-294.0185852050781,1104.3894653320312) rotate(0)"><path class="relationship" d="M 85.73017231638016 4 L 446.12969141507097 4 L 446.12969141507097 16 L 478.12969141507097 0 L 446.12969141507097 -16 L 446.12969141507097 -4 L 85.73017231638016 -4 Z" fill="rgb(0, 0, 0)" stroke="rgb(51, 51, 51)" stroke-width="0px"/></g></g><g class="related-pair"><g class="relationship" transform="translate(357.4879150390625,1743.4552001953125) rotate(-90)"><path class="relationship" d="M 141.30320022424445 4 L 433.6889260342116 4 L 433.6889260342116 16 L 465.6889260342116 0 L 433.6889260342116 -16 L 433.6889260342116 -4 L 141.30320022424445 -4 Z" fill="rgb(0, 0, 0)" stroke="rgb(51, 51, 51)" stroke-width="0px"/></g></g><g class="related-pair"><g class="relationship" transform="translate(357.4879150390625,2303.0537109375) rotate(-90)"><path class="relationship" d="M 217.40897493085106 4 L 386.29531051794305 4 L 386.29531051794305 16 L 418.29531051794305 0 L 386.29531051794305 -16 L 386.29531051794305 -4 L 217.40897493085106 -4 Z" fill="rgb(0, 0, 0)" stroke="rgb(51, 51, 51)" stroke-width="0px"/></g></g><g class="related-pair"><g class="relationship" transform="translate(357.4879150390625,2303.0537109375) rotate(0)"><path class="relationship" d="M 217.40897493085106 4 L 1188.4736220493305 4 L 1188.4736220493305 16 L 1220.4736220493305 0 L 1188.4736220493305 -16 L 1188.4736220493305 -4 L 217.40897493085106 -4 Z" fill="rgb(0, 0, 0)" stroke="rgb(51, 51, 51)" stroke-width="0px"/></g></g><g class="related-pair"><g class="relationship" transform="translate(1749.8729858398438,2303.0537109375) rotate(90)"><path class="relationship" d="M 171.91144875145068 4 L 370.6300551547993 4 L 370.6300551547993 16 L 402.6300551547993 0 L 370.6300551547993 -16 L 370.6300551547993 -4 L 171.91144875145068 -4 Z" fill="rgb(0, 0, 0)" stroke="rgb(51, 51, 51)" stroke-width="0px"/></g></g></g><g class="layer nodes"><circle class="node node-id-1" r="70.73017231638016" fill="rgb(255, 255, 255)" stroke="rgb(0, 0, 0)" stroke-width="8px" cx="-294.0185852050781" cy="1104.3894653320312"/><circle class="node node-id-4" r="158.37680882906966" fill="rgb(255, 255, 255)" stroke="rgb(0, 0, 0)" stroke-width="8px" cx="357.4879150390625" cy="1104.3894653320312"/><circle class="node node-id-5" r="126.30320022424446" fill="rgb(255, 255, 255)" stroke="rgb(0, 0, 0)" stroke-width="8px" cx="357.4879150390625" cy="1743.4552001953125"/><g class="caption"><text class="caption node" text-anchor="middle" alignment-baseline="central" x="-294.0185852050781" y="1104.3894653320312" fill="rgb(51, 51, 51)" font-size="50px" font-family="&quot;Gill Sans&quot;, &quot;Gill Sans MT&quot;, Calibri, sans-serif">APIs</text></g><g class="caption"><text class="caption node" text-anchor="middle" alignment-baseline="central" x="357.4879150390625" y="1054.3894653320312" fill="rgb(51, 51, 51)" font-size="50px" font-family="&quot;Gill Sans&quot;, &quot;Gill Sans MT&quot;, Calibri, sans-serif">Event</text><text class="caption node" text-anchor="middle" alignment-baseline="central" x="357.4879150390625" y="1104.3894653320312" fill="rgb(51, 51, 51)" font-size="50px" font-family="&quot;Gill Sans&quot;, &quot;Gill Sans MT&quot;, Calibri, sans-serif">Registration</text><text class="caption node" text-anchor="middle" alignment-baseline="central" x="357.4879150390625" y="1154.3894653320312" fill="rgb(51, 51, 51)" font-size="50px" font-family="&quot;Gill Sans&quot;, &quot;Gill Sans MT&quot;, Calibri, sans-serif">Mechanism</text></g><g class="caption"><text class="caption node" text-anchor="middle" alignment-baseline="central" x="357.4879150390625" y="1718.4552001953125" fill="rgb(51, 51, 51)" font-size="50px" font-family="&quot;Gill Sans&quot;, &quot;Gill Sans MT&quot;, Calibri, sans-serif">Sysmon</text><text class="caption node" text-anchor="middle" alignment-baseline="central" x="357.4879150390625" y="1768.4552001953125" fill="rgb(51, 51, 51)" font-size="50px" font-family="&quot;Gill Sans&quot;, &quot;Gill Sans MT&quot;, Calibri, sans-serif">Driver</text></g><circle class="node node-id-5" r="202.40897493085106" fill="rgb(255, 255, 255)" stroke="rgb(0, 0, 0)" stroke-width="8px" cx="357.4879150390625" cy="2303.0537109375"/><g class="caption"><text class="caption node" text-anchor="middle" alignment-baseline="central" x="357.4879150390625" y="2253.0537109375" fill="rgb(51, 51, 51)" font-size="50px" font-family="&quot;Gill Sans&quot;, &quot;Gill Sans MT&quot;, Calibri, sans-serif">Input/Output</text><text class="caption node" text-anchor="middle" alignment-baseline="central" x="357.4879150390625" y="2303.0537109375" fill="rgb(51, 51, 51)" font-size="50px" font-family="&quot;Gill Sans&quot;, &quot;Gill Sans MT&quot;, Calibri, sans-serif">Control</text><text class="caption node" text-anchor="middle" alignment-baseline="central" x="357.4879150390625" y="2353.0537109375" fill="rgb(51, 51, 51)" font-size="50px" font-family="&quot;Gill Sans&quot;, &quot;Gill Sans MT&quot;, Calibri, sans-serif">Interface</text></g><circle class="node node-id-6" r="156.91144875145068" fill="rgb(255, 255, 255)" stroke="rgb(0, 0, 0)" stroke-width="8px" cx="1749.8729858398438" cy="2303.0537109375"/><g class="caption"><text class="caption node" text-anchor="middle" alignment-baseline="central" x="1749.8729858398438" y="2253.0537109375" fill="rgb(51, 51, 51)" font-size="50px" font-family="&quot;Gill Sans&quot;, &quot;Gill Sans MT&quot;, Calibri, sans-serif">Sysmon</text><text class="caption node" text-anchor="middle" alignment-baseline="central" x="1749.8729858398438" y="2303.0537109375" fill="rgb(51, 51, 51)" font-size="50px" font-family="&quot;Gill Sans&quot;, &quot;Gill Sans MT&quot;, Calibri, sans-serif">Service</text><text class="caption node" text-anchor="middle" alignment-baseline="central" x="1749.8729858398438" y="2353.0537109375" fill="rgb(51, 51, 51)" font-size="50px" font-family="&quot;Gill Sans&quot;, &quot;Gill Sans MT&quot;, Calibri, sans-serif">Binary</text></g><circle class="node node-id-7" r="156.91144875145068" fill="rgb(255, 255, 255)" stroke="rgb(0, 0, 0)" stroke-width="8px" cx="1749.8729858398438" cy="2877.59521484375"/><g class="caption"><text class="caption node" text-anchor="middle" alignment-baseline="central" x="1749.8729858398438" y="2827.59521484375" fill="rgb(51, 51, 51)" font-size="50px" font-family="&quot;Gill Sans&quot;, &quot;Gill Sans MT&quot;, Calibri, sans-serif">Sysmon</text><text class="caption node" text-anchor="middle" alignment-baseline="central" x="1749.8729858398438" y="2877.59521484375" fill="rgb(51, 51, 51)" font-size="50px" font-family="&quot;Gill Sans&quot;, &quot;Gill Sans MT&quot;, Calibri, sans-serif">Event ID</text><text class="caption node" text-anchor="middle" alignment-baseline="central" x="1749.8729858398438" y="2927.59521484375" fill="rgb(51, 51, 51)" font-size="50px" font-family="&quot;Gill Sans&quot;, &quot;Gill Sans MT&quot;, Calibri, sans-serif">1</text></g></g><g class="layer properties"><g class="speech-bubble node-speech-bubble" transform="translate(-364.7487575214583,1104.3894653320312) "><path class="speech-bubble-outline" transform="scale(-1,1) " d="M 0 0 L 20 -10 L 20 -125 A 10 10 0 0 1 30 -135 L 717.20703125 -135 A 10 10 0 0 1 727.20703125 -125 L 727.20703125 125 A 10 10 0 0 1 717.20703125 135 L 30 135 A 10 10 0 0 1 20 125 L 20 10 Z" fill="rgb(255, 255, 255)" stroke="rgb(0, 0, 0)" stroke-width="3px"/><text class="speech-bubble-content property-key" x="-563.69140625" y="-100" alignment-baseline="central" text-anchor="end" font-size="50px" font-family="&quot;Gill Sans&quot;, &quot;Gill Sans MT&quot;, Calibri, sans-serif" xml:space="preserve">API(1): </text><text class="speech-bubble-content property-key" x="-563.69140625" y="-50" alignment-baseline="central" text-anchor="end" font-size="50px" font-family="&quot;Gill Sans&quot;, &quot;Gill Sans MT&quot;, Calibri, sans-serif" xml:space="preserve">API(2): </text><text class="speech-bubble-content property-key" x="-563.69140625" y="0" alignment-baseline="central" text-anchor="end" font-size="50px" font-family="&quot;Gill Sans&quot;, &quot;Gill Sans MT&quot;, Calibri, sans-serif" xml:space="preserve">API(3): </text><text class="speech-bubble-content property-key" x="-563.69140625" y="50" alignment-baseline="central" text-anchor="end" font-size="50px" font-family="&quot;Gill Sans&quot;, &quot;Gill Sans MT&quot;, Calibri, sans-serif" xml:space="preserve">API(4): </text><text class="speech-bubble-content property-key" x="-563.69140625" y="100" alignment-baseline="central" text-anchor="end" font-size="50px" font-family="&quot;Gill Sans&quot;, &quot;Gill Sans MT&quot;, Calibri, sans-serif" xml:space="preserve">API(5): </text><text class="speech-bubble-content property-value" x="-563.69140625" y="-100" alignment-baseline="central" font-size="50px" font-family="&quot;Gill Sans&quot;, &quot;Gill Sans MT&quot;, Calibri, sans-serif">CreateProcess</text><text class="speech-bubble-content property-value" x="-563.69140625" y="-50" alignment-baseline="central" font-size="50px" font-family="&quot;Gill Sans&quot;, &quot;Gill Sans MT&quot;, Calibri, sans-serif">CreateProcessAsUser</text><text class="speech-bubble-content property-value" x="-563.69140625" y="0" alignment-baseline="central" font-size="50px" font-family="&quot;Gill Sans&quot;, &quot;Gill Sans MT&quot;, Calibri, sans-serif">CreateProcessWithToken</text><text class="speech-bubble-content property-value" x="-563.69140625" y="50" alignment-baseline="central" font-size="50px" font-family="&quot;Gill Sans&quot;, &quot;Gill Sans MT&quot;, Calibri, sans-serif">CreateProcessWithLogon</text><text class="speech-bubble-content property-value" x="-563.69140625" y="100" alignment-baseline="central" font-size="50px" font-family="&quot;Gill Sans&quot;, &quot;Gill Sans MT&quot;, Calibri, sans-serif">CreateProcessInternal</text></g><g class="speech-bubble node-speech-bubble" transform="translate(469.47723054478314,992.4001498263106) "><path class="speech-bubble-outline" transform="scale(1,-1) " d="M 0 0 L 30 20 L 3164.4482421875 20 A 10 10 0 0 1 3174.4482421875 30 L 3174.4482421875 130 A 10 10 0 0 1 3164.4482421875 140 L 30 140 A 10 10 0 0 1 20 130 L 20 30 Z" fill="rgb(255, 255, 255)" stroke="rgb(0, 0, 0)" stroke-width="3px"/><text class="speech-bubble-content property-key" x="279.8291015625" y="-105" alignment-baseline="central" text-anchor="end" font-size="50px" font-family="&quot;Gill Sans&quot;, &quot;Gill Sans MT&quot;, Calibri, sans-serif" xml:space="preserve">Mechanism: </text><text class="speech-bubble-content property-key" x="279.8291015625" y="-55" alignment-baseline="central" text-anchor="end" font-size="50px" font-family="&quot;Gill Sans&quot;, &quot;Gill Sans MT&quot;, Calibri, sans-serif" xml:space="preserve">Function: </text><text class="speech-bubble-content property-value" x="279.8291015625" y="-105" alignment-baseline="central" font-size="50px" font-family="&quot;Gill Sans&quot;, &quot;Gill Sans MT&quot;, Calibri, sans-serif">PsSetCreateProcessNotifyRoutine</text><text class="speech-bubble-content property-value" x="279.8291015625" y="-55" alignment-baseline="central" font-size="50px" font-family="&quot;Gill Sans&quot;, &quot;Gill Sans MT&quot;, Calibri, sans-serif">routine adds a driver-supplied callback routine to, or removes it from, a list of routines to be called whenever a process is created or deleted.</text></g><g class="speech-bubble relationship-speech-bubble" transform="translate(1060.4292135291532,2303.0537109375) "><path class="speech-bubble-outline" transform="scale(1,1) " d="M 0 0 L -10 20 L -463.4765625 20 A 10 10 0 0 0 -473.4765625 30 L -473.4765625 80 A 10 10 0 0 0 -463.4765625 90 L 463.4765625 90 A 10 10 0 0 0 473.4765625 80 L 473.4765625 30 A 10 10 0 0 0 463.4765625 20 L 10 20 Z" fill="rgb(255, 255, 255)" stroke="rgb(0, 0, 0)" stroke-width="3px"/><text class="speech-bubble-content property-key" x="-200.0732421875" y="55" alignment-baseline="central" text-anchor="end" font-size="50px" font-family="&quot;Gill Sans&quot;, &quot;Gill Sans MT&quot;, Calibri, sans-serif" xml:space="preserve">Description: </text><text class="speech-bubble-content property-value" x="-200.0732421875" y="55" alignment-baseline="central" font-size="50px" font-family="&quot;Gill Sans&quot;, &quot;Gill Sans MT&quot;, Calibri, sans-serif">Pulls the queued event data back</text></g></g><g class="layer overlay"><circle class="node overlay" r="74.73017231638016" stroke="none" fill="rgba(255, 255, 255, 0)" cx="-294.0185852050781" cy="1104.3894653320312"/><circle class="node overlay" r="162.37680882906966" stroke="none" fill="rgba(255, 255, 255, 0)" cx="357.4879150390625" cy="1104.3894653320312"/><circle class="node overlay" r="130.30320022424445" stroke="none" fill="rgba(255, 255, 255, 0)" cx="357.4879150390625" cy="1743.4552001953125"/><circle class="node ring" r="79.73017231638016" fill="none" stroke="rgba(255, 255, 255, 0)" stroke-width="10px" cx="-294.0185852050781" cy="1104.3894653320312"/><circle class="node ring" r="167.37680882906966" fill="none" stroke="rgba(255, 255, 255, 0)" stroke-width="10px" cx="357.4879150390625" cy="1104.3894653320312"/><circle class="node ring" r="135.30320022424445" fill="none" stroke="rgba(255, 255, 255, 0)" stroke-width="10px" cx="357.4879150390625" cy="1743.4552001953125"/><path class="relationship overlay" fill="rgba(255, 255, 255, 0)" stroke="rgba(255, 255, 255, 0)" stroke-width="10px" transform="translate(-294.0185852050781,1104.3894653320312) rotate(0)" d="M 85.73017231638016 4 L 446.12969141507097 4 L 446.12969141507097 16 L 478.12969141507097 0 L 446.12969141507097 -16 L 446.12969141507097 -4 L 85.73017231638016 -4 Z"/><path class="relationship overlay" fill="rgba(255, 255, 255, 0)" stroke="rgba(255, 255, 255, 0)" stroke-width="10px" transform="translate(357.4879150390625,1743.4552001953125) rotate(-90)" d="M 141.30320022424445 4 L 433.6889260342116 4 L 433.6889260342116 16 L 465.6889260342116 0 L 433.6889260342116 -16 L 433.6889260342116 -4 L 141.30320022424445 -4 Z"/><circle class="node overlay" r="206.40897493085106" stroke="none" fill="rgba(255, 255, 255, 0)" cx="357.4879150390625" cy="2303.0537109375"/><circle class="node ring" r="211.40897493085106" fill="none" stroke="rgba(255, 255, 255, 0)" stroke-width="10px" cx="357.4879150390625" cy="2303.0537109375"/><path class="relationship overlay" fill="rgba(255, 255, 255, 0)" stroke="rgba(255, 255, 255, 0)" stroke-width="10px" transform="translate(357.4879150390625,2303.0537109375) rotate(-90)" d="M 217.40897493085106 4 L 386.29531051794305 4 L 386.29531051794305 16 L 418.29531051794305 0 L 386.29531051794305 -16 L 386.29531051794305 -4 L 217.40897493085106 -4 Z"/><circle class="node overlay" r="160.91144875145068" stroke="none" fill="rgba(255, 255, 255, 0)" cx="1749.8729858398438" cy="2303.0537109375"/><circle class="node ring" r="165.91144875145068" fill="none" stroke="rgba(255, 255, 255, 0)" stroke-width="10px" cx="1749.8729858398438" cy="2303.0537109375"/><path class="relationship overlay" fill="rgba(255, 255, 255, 0)" stroke="rgba(255, 255, 255, 0)" stroke-width="10px" transform="translate(357.4879150390625,2303.0537109375) rotate(0)" d="M 217.40897493085106 4 L 1188.4736220493305 4 L 1188.4736220493305 16 L 1220.4736220493305 0 L 1188.4736220493305 -16 L 1188.4736220493305 -4 L 217.40897493085106 -4 Z"/><circle class="node overlay" r="160.91144875145068" stroke="none" fill="rgba(255, 255, 255, 0)" cx="1749.8729858398438" cy="2877.59521484375"/><circle class="node ring" r="165.91144875145068" fill="none" stroke="rgba(255, 255, 255, 0)" stroke-width="10px" cx="1749.8729858398438" cy="2877.59521484375"/><path class="relationship overlay" fill="rgba(255, 255, 255, 0)" stroke="rgba(255, 255, 255, 0)" stroke-width="10px" transform="translate(1749.8729858398438,2303.0537109375) rotate(90)" d="M 171.91144875145068 4 L 370.6300551547993 4 L 370.6300551547993 16 L 402.6300551547993 0 L 370.6300551547993 -16 L 370.6300551547993 -4 L 171.91144875145068 -4 Z"/></g></svg>